<?xml version="1.0" encoding="UTF-8" standalone="no"?>
<svg
   xmlns:dc="http://purl.org/dc/elements/1.1/"
   xmlns:cc="http://creativecommons.org/ns#"
   xmlns:rdf="http://www.w3.org/1999/02/22-rdf-syntax-ns#"
   xmlns:svg="http://www.w3.org/2000/svg"
   xmlns="http://www.w3.org/2000/svg"
   xmlns:sodipodi="http://sodipodi.sourceforge.net/DTD/sodipodi-0.dtd"
   xmlns:inkscape="http://www.inkscape.org/namespaces/inkscape"
   version="1.1"
   id="svg2"
   xml:space="preserve"
   width="256"
   height="256"
   viewBox="0 0 256 256"
   sodipodi:docname="icon.svg"
   inkscape:version="1.0.2 (e86c870879, 2021-01-15)"
   inkscape:export-filename="icon.png"
   inkscape:export-xdpi="75"
   inkscape:export-ydpi="75"><metadata
     id="metadata8"><rdf:RDF><cc:Work
         rdf:about=""><dc:format>image/svg+xml</dc:format><dc:type
           rdf:resource="http://purl.org/dc/dcmitype/StillImage" /><dc:title /></cc:Work></rdf:RDF></metadata><defs
     id="defs6" /><sodipodi:namedview
     pagecolor="#ffffff"
     bordercolor="#666666"
     borderopacity="1"
     objecttolerance="10"
     gridtolerance="10"
     guidetolerance="10"
     inkscape:pageopacity="0"
     inkscape:pageshadow="2"
     inkscape:window-width="1920"
     inkscape:window-height="1024"
     id="namedview4"
     showgrid="false"
     inkscape:zoom="2.547827"
     inkscape:cx="111.072"
     inkscape:cy="127.40975"
     inkscape:window-x="0"
     inkscape:window-y="0"
     inkscape:window-maximized="1"
     inkscape:current-layer="layer2"
     lock-margins="true"
     inkscape:document-rotation="0" /><g
     inkscape:groupmode="layer"
     id="layer2"
     inkscape:label="Calendar"><g
       id="g1704"
       transform="matrix(0.27278126,0,0,0.27278126,60.213843,102.59095)"><path
         d="m 472,80 v 77 H 25 V 80 C 25,68.49 31.48,58.49 41,53.47 45.18,51.25 49.94,50 55,50 h 387 c 11.51,0 21.51,6.48 26.53,16 2.22,4.18 3.47,8.94 3.47,14 z"
         fill="#fd646f"
         id="path1634" /><path
         d="m 145,50 v 56 c 0,5.52 -4.48,10 -10,10 H 89 c -5.52,0 -10,-4.48 -10,-10 V 50 Z"
         fill="#fc4755"
         id="path1636" /><path
         d="m 402,50 v 56 c 0,5.52 -4.48,10 -10,10 h -46 c -5.52,0 -10,-4.48 -10,-10 V 50 Z"
         fill="#fc4755"
         id="path1638" /><path
         d="M 41,53.47 V 157 H 25 V 80 C 25,68.49 31.48,58.49 41,53.47 Z"
         fill="#fc4755"
         id="path1640" /><g
         fill="#e6e6e6"
         id="g1666"><path
           d="m 107,216.82 h 51.45 c 2.761,0 5,2.239 5,5 v 51.45 c 0,2.761 -2.239,5 -5,5 H 107 c -2.761,0 -5,-2.239 -5,-5 v -51.45 c 0,-2.761 2.239,-5 5,-5 z"
           id="path1642" /><path
           d="m 107,293.27 h 51.45 c 2.761,0 5,2.239 5,5 v 51.46 c 0,2.761 -2.239,5 -5,5 H 107 c -2.761,0 -5,-2.239 -5,-5 v -51.46 c 0,-2.761 2.239,-5 5,-5 z"
           id="path1644" /><path
           d="m 107,369.73 h 51.45 c 2.761,0 5,2.239 5,5 v 51.45 c 0,2.761 -2.239,5 -5,5 H 107 c -2.761,0 -5,-2.239 -5,-5 v -51.45 c 0,-2.761 2.239,-5 5,-5 z"
           id="path1646" /><path
           d="M 183.45,216.82 H 236 c 2.761,0 5,2.239 5,5 v 51.45 c 0,2.761 -2.239,5 -5,5 h -52.55 c -2.761,0 -5,-2.239 -5,-5 v -51.45 c 0,-2.761 2.239,-5 5,-5 z"
           id="path1648" /><path
           d="M 183.45,293.27 H 236 c 2.761,0 5,2.239 5,5 v 51.46 c 0,2.761 -2.239,5 -5,5 h -52.55 c -2.761,0 -5,-2.239 -5,-5 v -51.46 c 0,-2.761 2.239,-5 5,-5 z"
           id="path1650" /><path
           d="M 183.45,369.73 H 236 c 2.761,0 5,2.239 5,5 v 51.45 c 0,2.761 -2.239,5 -5,5 h -52.55 c -2.761,0 -5,-2.239 -5,-5 v -51.45 c 0,-2.761 2.239,-5 5,-5 z"
           id="path1652" /><path
           d="m 261,216.82 h 52.55 c 2.761,0 5,2.239 5,5 v 51.45 c 0,2.761 -2.239,5 -5,5 H 261 c -2.761,0 -5,-2.239 -5,-5 v -51.45 c 0,-2.761 2.239,-5 5,-5 z"
           id="path1654" /><path
           d="m 261,293.27 h 52.55 c 2.761,0 5,2.239 5,5 v 51.46 c 0,2.761 -2.239,5 -5,5 H 261 c -2.761,0 -5,-2.239 -5,-5 v -51.46 c 0,-2.761 2.239,-5 5,-5 z"
           id="path1656" /><path
           d="m 261,369.73 h 52.55 c 2.761,0 5,2.239 5,5 v 51.45 c 0,2.761 -2.239,5 -5,5 H 261 c -2.761,0 -5,-2.239 -5,-5 v -51.45 c 0,-2.761 2.239,-5 5,-5 z"
           id="path1658" /><path
           d="m 395,221.82 v 51.45 c 0,2.761 -2.239,5 -5,5 h -51.45 c -2.761,0 -5,-2.239 -5,-5 v -51.45 c 0,-2.761 2.239,-5 5,-5 H 390 c 2.761,0 5,2.239 5,5 z"
           id="path1660" /><path
           d="M 338.55,293.27 H 390 c 2.761,0 5,2.239 5,5 v 51.46 c 0,2.761 -2.239,5 -5,5 h -51.45 c -2.761,0 -5,-2.239 -5,-5 v -51.46 c 0,-2.761 2.239,-5 5,-5 z"
           id="path1662" /><path
           d="M 338.55,369.73 H 390 c 2.761,0 5,2.239 5,5 v 51.45 c 0,2.761 -2.239,5 -5,5 h -51.45 c -2.761,0 -5,-2.239 -5,-5 v -51.45 c 0,-2.761 2.239,-5 5,-5 z"
           id="path1664" /></g><path
         d="m 25,150 v 317 c 0,16.57 13.43,30 30,30 h 387 c 16.57,0 30,-13.43 30,-30 V 150 Z"
         fill="#f5f5f5"
         id="path1668" /><path
         d="m 145,10 v 80 c 0,5.52 -4.48,10 -10,10 H 105 C 99.48,100 95,95.52 95,90 V 10 C 95,4.48 99.48,0 105,0 h 30 c 5.52,0 10,4.48 10,10 z"
         fill="#50758d"
         id="path1670" /><path
         d="m 102,216.82 h 61.45 v 61.45 H 102 Z"
         fill="#ffac5c"
         id="path1672" /><path
         d="M 333.55,216.82 H 395 v 61.45 h -61.45 z"
         fill="#ffac5c"
         id="path1674" /><path
         d="M 178.45,216.82 H 241 v 61.45 h -62.55 z"
         fill="#ffac5c"
         id="path1676" /><path
         d="m 102,293.27 h 61.45 v 61.46 H 102 Z"
         fill="#ffac5c"
         id="path1678" /><path
         d="M 333.55,293.27 H 395 v 61.46 h -61.45 z"
         fill="#e6e6e6"
         id="path1680" /><path
         d="M 178.45,293.27 H 241 v 61.46 h -62.55 z"
         fill="#ffac5c"
         id="path1682" /><path
         d="m 102,369.73 h 61.45 v 61.45 H 102 Z"
         fill="#e6e6e6"
         id="path1684" /><path
         d="M 333.55,369.73 H 395 v 61.45 h -61.45 z"
         fill="#e6e6e6"
         id="path1686" /><path
         d="M 178.45,369.73 H 241 v 61.45 h -62.55 z"
         fill="#e6e6e6"
         id="path1688" /><path
         d="m 256,216.82 h 62.55 v 61.45 H 256 Z"
         fill="#ffac5c"
         id="path1690" /><path
         d="m 256,293.27 h 62.55 v 61.46 H 256 Z"
         fill="#ffac5c"
         id="path1692" /><path
         d="m 256,369.73 h 62.55 v 61.45 H 256 Z"
         fill="#e6e6e6"
         id="path1694" /><path
         d="m 402,10 v 80 c 0,5.52 -4.48,10 -10,10 h -30 c -5.52,0 -10,-4.48 -10,-10 V 10 c 0,-5.52 4.48,-10 10,-10 h 30 c 5.52,0 10,4.48 10,10 z"
         fill="#50758d"
         id="path1696" /><path
         d="m 25,150 v 317 c 0,16.57 13.43,30 30,30 H 66.08 C 52.09,494.46 41.5,482.22 41.5,467.5 V 171.22 C 42.63,168.17 45.56,166 49,166 H 472 V 150.5 150 Z"
         fill="#e6e6e6"
         id="path1698" /><path
         d="M 121,100 H 105 C 99.48,100 95,95.52 95,90 V 10 C 95,4.48 99.48,0 105,0 h 6 v 90 c 0,5.52 4.48,10 10,10 z"
         fill="#2b597f"
         id="path1700" /><path
         d="m 378,100 h -16 c -5.52,0 -10,-4.48 -10,-10 V 10 c 0,-5.52 4.48,-10 10,-10 h 6 v 90 c 0,5.52 4.48,10 10,10 z"
         fill="#2b597f"
         id="path1702" /></g></g><g
     id="g10"
     inkscape:groupmode="layer"
     inkscape:label="OctoTribble"
     transform="matrix(1.3333333,0,0,-1.3333333,0,666.66667)"
     style="display:inline"><path
       d="m 188.97302,426.37328 c -0.13368,1.19373 -0.75673,2.29912 -1.71125,3.03475 -7.58608,5.82558 -17.18986,9.0331 -27.04301,9.0331 -4.83824,0 -9.54359,-0.77236 -13.98626,-2.29521 -1.11009,-0.38072 -2.17952,-0.79974 -3.22628,-1.21641 1.98642,3.35605 3.3193,7.04278 4.60919,10.64742 1.27659,3.56477 2.48204,6.93255 4.23082,9.73277 1.63464,2.61807 7.70491,11.04845 17.13045,9.64912 1.27034,-0.18919 2.55632,0.18214 3.5296,1.02018 0.9717,0.83803 1.52909,2.05443 1.52909,3.33728 0,2.05209 -1.39307,3.81493 -3.38966,4.28867 -9.68586,2.28818 -20.56858,-1.21014 -27.08445,-8.70164 -2.71423,-3.12074 -4.58808,-6.52525 -6.39939,-9.8172 -2.12948,-3.86887 -4.14014,-7.52275 -7.28511,-10.18148 -1.08116,-0.91387 -2.14434,-1.61275 -3.2427,-2.13731 1.12337,3.92672 1.85822,8.4937 1.85822,13.77363 0,13.95577 -6.90753,20.8164 -12.70185,24.11381 -6.44004,3.66561 -13.55004,4.21206 -17.216436,4.21206 -0.78957,0 -1.388389,-0.0258 -1.736266,-0.0461 -0.347878,0.0204 -0.946698,0.0461 -1.737045,0.0461 -14.462345,0 -29.916728,-7.44068 -29.916728,-28.32587 0,-5.28462 0.745007,-9.8555 1.87307,-13.78144 -1.103829,0.52455 -2.172479,1.22656 -3.258327,2.14512 -3.144974,2.65873 -5.155631,6.31261 -7.284332,10.18148 -1.812093,3.29195 -3.685161,6.69646 -6.400174,9.8172 -6.515872,7.4915 -17.400936,10.98747 -27.089143,8.70086 -1.992676,-0.47374 -3.38497,-2.23736 -3.38497,-4.28789 0,-1.28285 0.557386,-2.49925 1.5291,-3.3365 0.973276,-0.83803 2.259252,-1.20937 3.527248,-1.02096 9.429448,1.40089 15.498943,-7.03105 17.132797,-9.64912 1.749553,-2.80022 2.955008,-6.16722 4.230822,-9.73277 1.289885,-3.60464 2.622766,-7.29215 4.60997,-10.64742 -1.047543,0.41667 -2.116974,0.83569 -3.227057,1.21641 -4.442676,1.52285 -9.14802,2.29521 -13.98626,2.29521 -9.853157,0 -19.456935,-3.20752 -27.0430192,-9.03388 -0.9545147,-0.73329 -1.5783497,-1.84024 -1.7112469,-3.03632 -0.1328972,-1.19529 0.2321792,-2.41013 1.0006381,-3.33259 0.8466337,-1.01862 2.0927386,-1.60258 3.4178025,-1.60258 0.7668955,0 1.5251905,0.20013 2.1951485,0.58005 3.205168,1.82148 8.009012,3.91266 16.781792,3.91266 1.431381,0 2.944064,-0.0563 4.496616,-0.16964 5.272893,-0.3815 10.295626,-2.88622 15.613078,-5.53791 3.256764,-1.62447 6.579976,-3.27709 10.079863,-4.49427 -8.130182,-5.45035 -21.927259,-18.4602 -16.694236,-41.84699 0.844289,-3.77506 1.47985,-6.44474 1.942645,-8.15911 0.593347,-2.20062 1.405584,-5.21347 4.627169,-5.21347 l 2.886214,1.24766 c 1.382131,1.46891 1.308648,2.69938 0.952952,8.60862 -0.204818,3.39122 -0.458886,7.61188 -0.288466,10.28546 0.904483,14.15824 14.054273,19.25603 24.620383,23.3516 0.0985,0.0375 0.195437,0.0759 0.293156,0.11336 -2.102122,-8.45774 -2.357754,-19.27713 0.942788,-29.05211 l 0.03909,-0.1118 c 4.154992,-11.17822 5.333087,-19.05355 5.336996,-19.08482 0.232961,-2.44609 0.666831,-6.99977 4.733486,-6.99977 3.83213,0 4.371536,4.0518 4.661565,6.22818 0.952951,7.15301 -0.29081,14.71642 -1.289884,20.79451 -0.178239,1.08585 -0.350224,2.1287 -0.499538,3.11527 -1.215619,8.01839 1.272686,19.46475 6.286039,24.49061 5.01413,-5.02586 7.50165,-16.47222 6.28681,-24.49061 -0.15009,-0.98657 -0.32208,-2.02942 -0.50032,-3.11527 -0.99906,-6.07731 -2.24282,-13.6415 -1.2891,-20.79451 0.28925,-2.17638 0.82866,-6.22818 4.66,-6.22818 4.06744,0 4.50053,4.55368 4.72958,6.96068 0.008,0.0704 1.1867,7.94569 5.34091,19.12391 l 0.0399,0.1118 c 3.30055,9.77498 3.0457,20.59437 0.9428,29.05211 0.0978,-0.0375 0.19465,-0.0759 0.29315,-0.11336 10.56611,-4.09557 23.7159,-9.19336 24.6196,-23.35082 0.1712,-2.67436 -0.0829,-6.89502 -0.2869,-10.28781 -0.3557,-5.90845 -0.42996,-7.13892 0.95217,-8.60705 l 2.88543,-1.24766 c 3.22159,0 4.03461,3.01285 4.62796,5.21269 0.46279,1.71515 1.09835,4.38405 1.94342,8.15989 5.23224,23.38679 -8.56484,36.39585 -16.69502,41.84699 3.50068,1.21718 6.82389,2.8698 10.08064,4.49427 5.31668,2.65169 10.33941,5.15641 15.61152,5.53791 1.55333,0.11335 3.06602,0.16964 4.49739,0.16964 8.77357,0 13.57741,-2.09118 16.78493,-3.91422 0.66683,-0.37836 1.42591,-0.57849 2.19358,-0.57849 1.32194,0 2.56727,0.5824 3.42093,1.60649 0.76612,0.92481 1.12885,2.13808 0.99595,3.33103"
       style="fill:#251d18;fill-opacity:1;fill-rule:nonzero;stroke:none;stroke-width:0.0781749"
       id="path30" /><path
       d="m 108.39978,429.55941 c -1.20701,-1.07881 -2.92842,-0.92168 -3.89701,-0.73249 -1.46187,0.28612 -4.24567,1.01471 -0.31974,2.64153 3.83995,1.59164 5.7693,-0.52221 4.21675,-1.90904 z m -19.227095,-0.73249 c -0.967805,-0.18919 -2.689996,-0.34632 -3.897015,0.73249 -1.552553,1.38683 0.377584,3.50068 4.21675,1.90904 3.926722,-1.62682 1.141353,-2.35541 -0.319735,-2.64153 z m 39.847275,-13.77128 c -15.18937,7.46961 -16.9186,11.83098 -16.9186,11.83098 0,0 12.48218,8.72197 12.48218,29.77523 0,26.76784 -27.745812,24.36162 -27.745812,24.36162 0,0 -27.745813,2.40622 -27.745813,-24.36162 0,-14.47016 5.895946,-23.11474 9.583454,-27.10634 1.678413,-1.81679 2.898723,-2.66889 2.898723,-2.66889 0,0 -1.307084,-3.29507 -11.622254,-9.06203 -1.552552,-0.86774 -3.30914,-1.79177 -5.295563,-2.76895 -6.90362,-3.39435 -24.775168,-15.50129 -19.248989,-40.20141 5.058693,-22.60816 1.86916,-2.24127 2.406221,6.16565 1.428254,22.36894 28.422025,25.33881 35.940881,30.82824 -4.285545,-7.10608 -6.879386,-22.38771 -2.48127,-35.41475 4.135449,-11.12898 5.496473,-19.36626 5.564485,-20.07609 0.225144,-2.3687 0.89901,-6.10858 1.629163,-0.62696 1.039726,7.80733 -0.816145,16.45112 -1.780041,22.80829 -1.579132,10.41367 2.181078,25.33881 10.151003,30.00115 7.970702,-4.66234 11.730122,-19.58748 10.150992,-30.00115 -0.96389,-6.35717 -2.81976,-15.00096 -1.77925,-22.80829 0.72937,-5.48162 1.40323,-1.74174 1.62916,0.62696 0.0673,0.70983 1.42826,8.94711 5.56371,20.07609 4.3989,13.02704 1.80427,28.30867 -2.48127,35.41475 7.51885,-5.48943 34.51184,-8.4593 35.94166,-30.82824 0.53628,-8.40692 -2.65326,-28.77381 2.40544,-6.16565 5.52695,24.70012 -12.34537,36.80706 -19.24821,40.20141"
       style="fill:#9f8170;fill-opacity:1;fill-rule:nonzero;stroke:none;stroke-width:0.0781749"
       id="path50" /><path
       d="m 70.568638,437.87722 c -3.596824,0.40963 -6.527599,1.82538 -9.294206,4.1628 -6.536198,5.52619 -8.491351,13.96047 -14.108994,20.41849 -5.612172,6.45177 -14.920449,9.4271 -23.237469,7.46257 -0.222799,-0.0524 -0.379149,-0.25407 -0.379149,-0.4839 v 0 c 0,-0.30488 0.271267,-0.53628 0.573022,-0.49172 9.015122,1.33914 16.519124,-4.23316 21.022777,-11.44401 4.53414,-7.2601 5.575429,-17.19534 11.163365,-23.67916 0.943571,-1.09445 1.96688,-2.10603 3.141066,-2.94797 0,0 6.781667,-1.36571 15.051,0.9334 0,0 -2.181078,2.37183 -3.931412,6.0695"
       style="fill:#7a6152;fill-opacity:1;fill-rule:nonzero;stroke:none;stroke-width:0.0781749"
       id="path52" /><path
       d="m 75.275544,429.54534 c 1.642455,-1.84804 2.846347,-2.72361 2.846347,-2.72361 0,0 -1.369624,-3.26927 -11.793456,-8.83766 -11.72388,1.13901 -21.579381,10.93353 -33.451012,11.79424 -12.369603,0.89666 -19.055898,-1.72063 -23.4938824,-4.24334 -0.2251426,-0.1282 -0.5096999,-0.0758 -0.6762122,0.12352 v 0 c -0.1946552,0.23531 -0.1540039,0.58397 0.08834,0.77003 10.4269586,8.009 24.9369896,10.40662 37.3792966,6.14062 2.683742,-0.92011 5.265075,-2.124 7.963671,-2.99956 6.590138,-2.13652 14.493613,-1.99033 21.13691,-0.0243"
       style="fill:#7a6152;fill-opacity:1;fill-rule:nonzero;stroke:none;stroke-width:0.0781749"
       id="path54" /><path
       d="m 123.10681,437.87722 c 3.59761,0.40963 6.52838,1.82538 9.29421,4.1628 6.5362,5.52619 8.49135,13.96047 14.10978,20.41849 5.61139,6.45177 14.91966,9.4271 23.2359,7.46257 0.22358,-0.0524 0.37994,-0.25407 0.37994,-0.4839 v 0 c 0,-0.30488 -0.27128,-0.53628 -0.57303,-0.49172 -9.01512,1.33914 -16.51912,-4.23316 -21.02277,-11.44401 -4.53414,-7.2601 -5.57543,-17.19534 -11.16415,-23.67916 -0.94357,-1.09445 -1.9661,-2.10603 -3.14028,-2.94797 0,0 -6.78168,-1.36571 -15.05179,0.9334 0,0 2.18186,2.37183 3.93219,6.0695"
       style="fill:#7a6152;fill-opacity:1;fill-rule:nonzero;stroke:none;stroke-width:0.0781749"
       id="path56" /><path
       d="m 118.40069,429.54534 c -1.64324,-1.84804 -2.84713,-2.72361 -2.84713,-2.72361 0,0 1.36963,-3.26927 11.79346,-8.83766 11.72388,1.13901 21.57938,10.93353 33.45101,11.79424 12.3696,0.89666 19.0559,-1.72063 23.49388,-4.24334 0.22514,-0.1282 0.5097,-0.0758 0.67544,0.12352 v 0 c 0.19543,0.23531 0.15478,0.58397 -0.0868,0.77003 -10.42774,8.009 -24.93778,10.40662 -37.38008,6.14062 -2.68297,-0.92011 -5.26508,-2.124 -7.96367,-2.99956 -6.59014,-2.13652 -14.49362,-1.99033 -21.13613,-0.0243"
       style="fill:#7a6152;fill-opacity:1;fill-rule:nonzero;stroke:none;stroke-width:0.0781749"
       id="path58" /><path
       d="m 57.042047,421.756 c 0,0 4.992244,-2.2483 9.187887,-2.39293 l 4.555248,2.39293 c 0,0 -7.335145,-1.31255 -13.743135,0"
       style="fill:#e8ddc1;fill-opacity:1;fill-rule:nonzero;stroke:none;stroke-width:0.0781749"
       id="path88" /><path
       d="m 52.398461,395.91141 c 4.643586,6.66049 13.310829,9.89615 20.075297,12.4767 7.312475,2.42655 13.162297,5.76383 15.547411,10.97496 -9.488861,-9.363 -30.979122,-10.03687 -35.622708,-23.45166"
       style="fill:#e8ddc1;fill-opacity:1;fill-rule:nonzero;stroke:none;stroke-width:0.0781749"
       id="path90" /><path
       d="m 86.615586,397.99632 c 0,0 3.259891,8.65631 8.599232,11.63242 0,0 -8.997923,-1.66278 -8.599232,-11.63242"
       style="fill:#e8ddc1;fill-opacity:1;fill-rule:nonzero;stroke:none;stroke-width:0.0781749"
       id="path92" /><path
       d="m 54.157395,439.20463 c 0,0 3.799297,-6.12735 5.816208,-7.02714 0,0 2.29834,-0.66526 6.238351,-0.29003 0,0 -7.176449,1.73549 -12.054559,7.31717"
       style="fill:#e8ddc1;fill-opacity:1;fill-rule:nonzero;stroke:none;stroke-width:0.0781749"
       id="path94" /><path
       d="m 136.6334,421.756 c 0,0 -4.99224,-2.2483 -9.18788,-2.39293 l -4.55525,2.39293 c 0,0 7.33514,-1.31255 13.74313,0"
       style="fill:#e8ddc1;fill-opacity:1;fill-rule:nonzero;stroke:none;stroke-width:0.0781749"
       id="path96" /><path
       d="m 141.27699,395.91141 c -4.64359,6.66049 -13.31083,9.89615 -20.07529,12.4767 -7.31248,2.42655 -13.1623,5.76383 -15.54742,10.97496 9.48886,-9.363 30.97912,-10.03687 35.62271,-23.45166"
       style="fill:#e8ddc1;fill-opacity:1;fill-rule:nonzero;stroke:none;stroke-width:0.0781749"
       id="path98" /><path
       d="m 107.05987,397.99632 c 0,0 -3.2599,8.65631 -8.599233,11.63242 0,0 8.998703,-1.66278 8.599233,-11.63242"
       style="fill:#e8ddc1;fill-opacity:1;fill-rule:nonzero;stroke:none;stroke-width:0.0781749"
       id="path100" /><path
       d="m 139.51805,439.20463 c 0,0 -3.79929,-6.12735 -5.8162,-7.02714 0,0 -2.29834,-0.66526 -6.23835,-0.29003 0,0 7.17645,1.73549 12.05455,7.31717"
       style="fill:#e8ddc1;fill-opacity:1;fill-rule:nonzero;stroke:none;stroke-width:0.0781749"
       id="path102" /></g><g
     inkscape:groupmode="layer"
     id="layer1"
     inkscape:label="Hairs"
     style="display:inline"><path
       style="fill:none;stroke:#251d18;stroke-width:0.781749px;stroke-linecap:round;stroke-linejoin:round;stroke-opacity:1"
       d="m 166.77788,43.065266 c 1.51402,-1.120152 4.16999,-3.384148 6.0161,-3.234698"
       id="path984" /><path
       style="fill:none;stroke:#251d18;stroke-width:0.781749px;stroke-linecap:round;stroke-linejoin:round;stroke-opacity:1"
       d="m 160.74778,35.556802 c 1.28394,-1.590212 2.20052,-3.423307 3.63765,-4.886564"
       id="path986" /><path
       style="fill:none;stroke:#251d18;stroke-width:0.781749px;stroke-linecap:round;stroke-linejoin:round;stroke-opacity:1"
       d="m 146.36511,26.444045 c 0.35175,-2.196651 1.97953,-4.695858 1.6789,-6.980533"
       id="path988" /><path
       style="fill:none;stroke:#251d18;stroke-width:0.781749px;stroke-linecap:round;stroke-linejoin:round;stroke-opacity:1"
       d="m 129.11697,25.302046 c -0.52789,-0.797363 -1.13955,-1.545204 -1.58365,-2.392108 -0.17801,-0.339456 0.0193,-0.770742 -0.042,-1.149117 -0.19224,-1.188905 -0.64544,-2.494925 -1.25919,-3.533181"
       id="path990" /><path
       style="fill:none;stroke:#251d18;stroke-width:0.781749px;stroke-linecap:round;stroke-linejoin:round;stroke-opacity:1"
       d="m 108.56162,27.325471 c -1.26432,-1.461785 -3.49389,-4.464742 -5.59637,-5.100157"
       id="path992" /><path
       style="fill:none;stroke:#251d18;stroke-width:0.781749px;stroke-linecap:round;stroke-linejoin:round;stroke-opacity:1"
       d="M 101.20239,33.738914 C 98.705486,32.703202 95.713216,32.57659 93.311508,31.315692"
       id="path994" /><path
       style="fill:none;stroke:#251d18;stroke-width:0.781749px;stroke-linecap:round;stroke-linejoin:round;stroke-opacity:1"
       d="m 90.681217,50.652081 c -1.58746,-1.184453 -3.32809,-2.166319 -4.89683,-3.369012"
       id="path996" /><path
       style="fill:none;stroke:#251d18;stroke-width:0.781749px;stroke-linecap:round;stroke-linejoin:round;stroke-opacity:1"
       d="M 91.380757,63.062033 C 89.036211,62.621971 86.900401,61.793391 84.763049,60.788042"
       id="path998" /><path
       style="fill:none;stroke:#251d18;stroke-width:0.781749px;stroke-linecap:round;stroke-linejoin:round;stroke-opacity:1"
       d="m 118.15939,57.175583 c 0.74572,-1.21959 1.25274,-2.656308 2.26655,-3.698263"
       id="path1000" /><path
       style="fill:none;stroke:#251d18;stroke-width:0.781749px;stroke-linecap:round;stroke-linejoin:round;stroke-opacity:1"
       d="m 148.79953,51.430911 c 1.94212,-0.843381 4.16881,-2.759718 6.37987,-2.825229"
       id="path1002" /><path
       style="fill:none;stroke:#251d18;stroke-width:0.781749px;stroke-linecap:round;stroke-linejoin:round;stroke-opacity:1"
       d="m 144.44835,40.428438 c 1.03804,-1.12874 2.16448,-2.379693 3.06401,-3.604057"
       id="path1004" /><path
       style="fill:none;stroke:#251d18;stroke-width:0.781749px;stroke-linecap:round;stroke-linejoin:round;stroke-opacity:1"
       d="m 126.21817,37.280483 c -1.00335,-1.588564 -1.25031,-3.678437 -2.74223,-4.934134"
       id="path1006" /><path
       style="fill:none;stroke:#251d18;stroke-width:0.781749px;stroke-linecap:round;stroke-linejoin:round;stroke-opacity:1"
       d="m 112.85683,47.598321 c -1.55543,-1.081689 -2.86831,-2.806549 -4.72892,-3.399791"
       id="path1008" /><path
       style="fill:none;stroke:#251d18;stroke-width:0.781749px;stroke-linecap:round;stroke-linejoin:round;stroke-opacity:1"
       d="m 145.24584,68.469063 c 1.90404,-1.376659 3.64499,-3.100977 5.6943,-4.304546"
       id="path1012" /><path
       style="fill:none;stroke:#251d18;stroke-width:0.781749px;stroke-linecap:round;stroke-linejoin:round;stroke-opacity:1"
       d="m 137.94257,60.394426 c 0.4042,-2.072831 0.47869,-4.262561 0.29381,-6.37426"
       id="path1014" /><path
       style="fill:none;stroke:#251d18;stroke-width:0.781749px;stroke-linecap:round;stroke-linejoin:round;stroke-opacity:1"
       d="m 160.83173,72.939631 c 1.7436,-0.0642 3.34123,-1.361784 5.0787,-1.361784"
       id="path1016" /><path
       style="fill:none;stroke:#251d18;stroke-width:0.781749px;stroke-linecap:round;stroke-linejoin:round;stroke-opacity:1"
       d="m 96.375526,75.827357 c -2.673153,-0.473332 -5.18142,-1.521209 -7.876898,-1.967128"
       id="path1018" /><path
       style="fill:none;stroke:#251d18;stroke-width:0.781749px;stroke-linecap:round;stroke-linejoin:round;stroke-opacity:1"
       d="m 102.2797,60.025066 c -0.11333,-1.667823 -1.20536,-2.807112 -2.09864,-4.10027"
       id="path1020" /><path
       style="fill:none;stroke:#251d18;stroke-width:0.781749px;stroke-linecap:round;stroke-linejoin:round;stroke-opacity:1"
       d="m 114.66166,35.06899 c 0.52455,-1.426044 0.18559,-2.939581 0.41974,-4.391288"
       id="path1022" /><path
       style="fill:none;stroke:#251d18;stroke-width:0.781749px;stroke-linecap:round;stroke-linejoin:round;stroke-opacity:1"
       d="m 198.0476,44.426112 c -0.31763,-3.077494 0.19216,-6.543879 2.05667,-9.112747"
       id="path1028" /><path
       style="fill:none;stroke:#251d18;stroke-width:0.781749px;stroke-linecap:round;stroke-linejoin:round;stroke-opacity:1"
       d="m 216.58558,36.549227 c 1.24992,-1.932504 3.05308,-3.475591 5.05073,-4.596484"
       id="path1030" /><path
       style="fill:none;fill-opacity:1;stroke:#251d18;stroke-width:0.966241;stroke-linecap:round;stroke-linejoin:round;stroke-opacity:1"
       d="m 49.240083,38.028542 c -0.269874,-2.37187 -2.763465,-3.689078 -4.714942,-4.729866"
       id="path1064" /><path
       style="fill:none;fill-opacity:1;stroke:#251d18;stroke-width:0.966241;stroke-linecap:round;stroke-linejoin:round;stroke-opacity:1"
       d="M 62.713344,43.253686 C 62.101829,41.683388 61.43868,40.102303 60.642688,38.610562"
       id="path1066" /><path
       style="fill:none;fill-opacity:1;stroke:#251d18;stroke-width:0.966241;stroke-linecap:round;stroke-linejoin:round;stroke-opacity:1"
       d="m 72.898744,58.89927 c 1.000848,-1.981319 1.257316,-4.217064 1.357123,-6.405975"
       id="path1068" /><path
       style="fill:none;fill-opacity:1;stroke:#251d18;stroke-width:0.966241;stroke-linecap:round;stroke-linejoin:round;stroke-opacity:1"
       d="m 81.754998,72.301649 c -0.228731,-2.829233 -0.91119,-5.721124 -1.972718,-8.35725"
       id="path1070" /><path
       style="fill:none;fill-opacity:1;stroke:#251d18;stroke-width:0.966241;stroke-linecap:round;stroke-linejoin:round;stroke-opacity:1"
       d="m 62.993164,68.075455 c -1.513575,-0.694802 -4.546798,-1.167252 -5.79224,-2.218961"
       id="path1072" /><path
       style="fill:none;fill-opacity:1;stroke:#251d18;stroke-width:0.966241;stroke-linecap:round;stroke-linejoin:round;stroke-opacity:1"
       d="m 54.738519,52.147254 c -0.472466,-0.01783 -0.940655,0.105169 -1.413082,0.110063 -0.776298,0.0081 -1.546579,-0.213496 -2.322496,-0.13432 -0.861759,0.08794 -2.265381,0.659943 -3.050022,0.519534"
       id="path1074" /><path
       style="fill:none;fill-opacity:1;stroke:#251d18;stroke-width:0.966241;stroke-linecap:round;stroke-linejoin:round;stroke-opacity:1"
       d="m 40.91548,45.906362 c -0.546364,1.470069 -1.732213,2.085376 -2.980063,2.848557"
       id="path1076" /><path
       style="fill:none;fill-opacity:1;stroke:#251d18;stroke-width:0.966241;stroke-linecap:round;stroke-linejoin:round;stroke-opacity:1"
       d="M 4.4831081,98.988878 C 5.3966904,98.37545 6.4324287,97.930063 7.5051433,97.674654"
       id="path1078" /><path
       style="fill:none;fill-opacity:1;stroke:#251d18;stroke-width:0.966241;stroke-linecap:round;stroke-linejoin:round;stroke-opacity:1"
       d="m 10.051493,89.442398 c 1.607516,0.757898 3.445446,1.092316 5.218616,1.235856"
       id="path1080" /><path
       style="fill:none;fill-opacity:1;stroke:#251d18;stroke-width:0.966241;stroke-linecap:round;stroke-linejoin:round;stroke-opacity:1"
       d="m 23.94449,83.933699 c 1.653945,0.235538 3.019777,1.205858 4.491081,1.920491"
       id="path1082" /><path
       style="fill:none;fill-opacity:1;stroke:#251d18;stroke-width:0.966241;stroke-linecap:round;stroke-linejoin:round;stroke-opacity:1"
       d="m 34.997316,80.344563 c 1.95717,0.322989 3.384174,1.541503 4.896825,2.676"
       id="path1084" /><path
       style="fill:none;fill-opacity:1;stroke:#251d18;stroke-width:0.966241;stroke-linecap:round;stroke-linejoin:round;stroke-opacity:1"
       d="m 55.088288,81.690487 c 1.666468,0.291514 3.568189,1.617084 4.617006,3.029506"
       id="path1086" /><path
       style="fill:none;fill-opacity:1;stroke:#251d18;stroke-width:0.966241;stroke-linecap:round;stroke-linejoin:round;stroke-opacity:1"
       d="m 17.396729,102.40452 c -1.1809,1.16247 -1.213921,3.15042 -2.280516,4.35211"
       id="path1088" /><path
       style="fill:none;fill-opacity:1;stroke:#251d18;stroke-width:0.966241;stroke-linecap:round;stroke-linejoin:round;stroke-opacity:1"
       d="m 25.861242,99.523317 c -0.72701,1.336553 -1.595555,2.604023 -2.630294,3.722533"
       id="path1090" /><path
       style="fill:none;fill-opacity:1;stroke:#251d18;stroke-width:0.966241;stroke-linecap:round;stroke-linejoin:round;stroke-opacity:1"
       d="m 37.123938,98.618573 c -2.008616,0.249911 -3.206661,1.968127 -4.770901,3.069617"
       id="path1092" /><path
       style="fill:none;fill-opacity:1;stroke:#251d18;stroke-width:0.966241;stroke-linecap:round;stroke-linejoin:round;stroke-opacity:1"
       d="m 50.037568,99.578352 c -1.312344,1.113368 -3.033214,1.298798 -4.505082,2.156468"
       id="path1094" /><path
       style="fill:none;fill-opacity:1;stroke:#251d18;stroke-width:0.966241;stroke-linecap:round;stroke-linejoin:round;stroke-opacity:1"
       d="m 68.099856,106.96837 c -1.317582,1.44223 -3.094183,2.24187 -4.868846,2.97539"
       id="path1096" /><path
       style="fill:none;fill-opacity:1;stroke:#251d18;stroke-width:0.966241;stroke-linecap:round;stroke-linejoin:round;stroke-opacity:1"
       d="m 73.010666,117.83746 c -0.32179,0.34883 -0.595911,0.74862 -0.965373,1.04652 -0.402983,0.32492 -4.861427,1.06084 -6.39385,1.86452"
       id="path1098" /><path
       style="fill:none;fill-opacity:1;stroke:#251d18;stroke-width:0.966241;stroke-linecap:round;stroke-linejoin:round;stroke-opacity:1"
       d="m 59.383502,133.97832 c -2.306492,1.24526 -2.826082,4.01425 -4.742921,5.58703"
       id="path1100" /><path
       style="fill:none;fill-opacity:1;stroke:#251d18;stroke-width:0.966241;stroke-linecap:round;stroke-linejoin:round;stroke-opacity:1"
       d="m 56.05367,154.69142 c -1.624685,1.8631 -2.355088,4.1946 -3.329842,6.39105"
       id="path1104" /><path
       style="fill:none;fill-opacity:1;stroke:#251d18;stroke-width:0.966241;stroke-linecap:round;stroke-linejoin:round;stroke-opacity:1"
       d="m 58.586025,174.58652 c -0.858398,1.97211 -1.703007,3.93133 -2.406439,5.95827"
       id="path1106" /><path
       style="fill:none;fill-opacity:1;stroke:#251d18;stroke-width:0.966241;stroke-linecap:round;stroke-linejoin:round;stroke-opacity:1"
       d="m 66.784705,162.16071 c 1.99754,1.19191 1.910319,4.03626 3.651632,5.40609"
       id="path1108" /><path
       style="fill:none;fill-opacity:1;stroke:#251d18;stroke-width:0.966241;stroke-linecap:round;stroke-linejoin:round;stroke-opacity:1"
       d="m 70.156519,148.48225 c 1.887515,1.04126 1.550207,2.64526 1.958733,4.41553"
       id="path1110" /><path
       style="fill:none;fill-opacity:1;stroke:#251d18;stroke-width:0.966241;stroke-linecap:round;stroke-linejoin:round;stroke-opacity:1"
       d="m 83.53185,136.1581 c -0.200284,1.6415 -0.774557,3.3064 -1.748865,4.65898"
       id="path1112" /><path
       style="fill:none;fill-opacity:1;stroke:#251d18;stroke-width:0.966241;stroke-linecap:round;stroke-linejoin:round;stroke-opacity:1"
       d="m 95.745925,129.30348 c -0.424309,1.33198 -0.793873,2.68142 -1.217205,4.01354"
       id="path1114" /><path
       style="fill:none;fill-opacity:1;stroke:#251d18;stroke-width:0.966241;stroke-linecap:round;stroke-linejoin:round;stroke-opacity:1"
       d="m 102.20974,140.20335 c -1.81795,1.12841 -3.132781,2.77192 -3.511725,4.90242"
       id="path1116" /><path
       style="fill:none;fill-opacity:1;stroke:#251d18;stroke-width:0.966241;stroke-linecap:round;stroke-linejoin:round;stroke-opacity:1"
       d="m 103.37099,161.43598 c -0.98518,2.23379 -0.94133,4.75568 -0.4757,7.11485"
       id="path1118" /><path
       style="fill:none;fill-opacity:1;stroke:#251d18;stroke-width:0.966241;stroke-linecap:round;stroke-linejoin:round;stroke-opacity:1"
       d="m 109.19121,179.95437 c -0.68198,1.76789 -1.5465,3.47244 -2.02868,5.31188"
       id="path1120" /><path
       style="fill:none;fill-opacity:1;stroke:#251d18;stroke-width:0.966241;stroke-linecap:round;stroke-linejoin:round;stroke-opacity:1"
       d="m 111.03801,190.05115 c -1.31811,1.58332 -1.11926,3.30303 -1.11926,5.19437"
       id="path1124" /><path
       style="fill:none;fill-opacity:1;stroke:#251d18;stroke-width:0.966241;stroke-linecap:round;stroke-linejoin:round;stroke-opacity:1"
       d="m 121.04152,178.24655 c 2.31318,0.65622 4.13103,3.06922 4.74293,5.38277"
       id="path1126" /><path
       style="fill:none;fill-opacity:1;stroke:#251d18;stroke-width:0.966241;stroke-linecap:round;stroke-linejoin:round;stroke-opacity:1"
       d="m 121.9929,196.66234 c 0.41135,1.51848 0.55764,3.0781 0.61561,4.64312"
       id="path1128" /><path
       style="fill:none;fill-opacity:1;stroke:#251d18;stroke-width:0.966241;stroke-linecap:round;stroke-linejoin:round;stroke-opacity:1"
       d="m 120.3,160.35775 c 0.30526,1.81647 2.24524,2.75966 2.91012,4.32878"
       id="path1130" /><path
       style="fill:none;fill-opacity:1;stroke:#251d18;stroke-width:0.966241;stroke-linecap:round;stroke-linejoin:round;stroke-opacity:1"
       d="m 123.93765,135.91373 c 0.42911,1.3087 0.44879,2.66463 0.50367,4.02193"
       id="path1132" /><path
       style="fill:none;fill-opacity:1;stroke:#251d18;stroke-width:0.966241;stroke-linecap:round;stroke-linejoin:round;stroke-opacity:1"
       d="m 136.87926,136.23645 c -1.28541,1.82433 -1.0513,4.09191 -1.16125,6.22504"
       id="path1134" /><path
       style="fill:none;fill-opacity:1;stroke:#251d18;stroke-width:0.966241;stroke-linecap:round;stroke-linejoin:round;stroke-opacity:1"
       d="m 138.75403,156.84788 c -1.38232,0.55191 -2.69802,0.83264 -3.16193,2.35329"
       id="path1138" /><path
       style="fill:none;fill-opacity:1;stroke:#251d18;stroke-width:0.966241;stroke-linecap:round;stroke-linejoin:round;stroke-opacity:1"
       d="m 137.06113,175.59386 c -1.37897,-0.93448 -2.02836,-0.33692 -2.72822,0.84226"
       id="path1140" /><path
       style="fill:none;fill-opacity:1;stroke:#251d18;stroke-width:0.966241;stroke-linecap:round;stroke-linejoin:round;stroke-opacity:1"
       d="m 136.37558,195.15879 c -0.33534,1.82197 -1.99831,3.11421 -2.43442,4.89495"
       id="path1142" /><path
       style="fill:none;fill-opacity:1;stroke:#251d18;stroke-width:0.966241;stroke-linecap:round;stroke-linejoin:round;stroke-opacity:1"
       d="m 145.41372,198.29088 c 1.05784,0.76191 1.7892,1.85987 2.81218,2.65268"
       id="path1144" /><path
       style="fill:none;fill-opacity:1;stroke:#251d18;stroke-width:0.966241;stroke-linecap:round;stroke-linejoin:round;stroke-opacity:1"
       d="m 148.8555,181.23687 c 1.53278,0.23984 1.90639,1.32783 2.72822,2.41577"
       id="path1146" /><path
       style="fill:none;fill-opacity:1;stroke:#251d18;stroke-width:0.966241;stroke-linecap:round;stroke-linejoin:round;stroke-opacity:1"
       d="m 154.46586,162.66438 c 1.13942,1.42831 1.37006,3.13778 1.65092,4.8791"
       id="path1148" /><path
       style="fill:none;fill-opacity:1;stroke:#251d18;stroke-width:0.966241;stroke-linecap:round;stroke-linejoin:round;stroke-opacity:1"
       d="m 155.83696,140.40015 c 1.84416,0.41868 2.4745,1.96899 3.51173,3.32891"
       id="path1150" /><path
       style="fill:none;fill-opacity:1;stroke:#251d18;stroke-width:0.966241;stroke-linecap:round;stroke-linejoin:round;stroke-opacity:1"
       d="m 161.61521,129.10668 c 0.74396,1.89802 1.24843,3.88172 1.74887,5.85567"
       id="path1152" /><path
       style="fill:none;fill-opacity:1;stroke:#251d18;stroke-width:0.966241;stroke-linecap:round;stroke-linejoin:round;stroke-opacity:1"
       d="m 174.13709,134.9381 c 0.29264,1.23676 0.39413,2.49713 0.44772,3.76169"
       id="path1154" /><path
       style="fill:none;fill-opacity:1;stroke:#251d18;stroke-width:0.966241;stroke-linecap:round;stroke-linejoin:round;stroke-opacity:1"
       d="m 184.61631,143.5164 c -0.056,1.91416 -0.0769,3.83144 0.0139,5.74467"
       id="path1156" /><path
       style="fill:none;fill-opacity:1;stroke:#251d18;stroke-width:0.966241;stroke-linecap:round;stroke-linejoin:round;stroke-opacity:1"
       d="m 190.81428,156.72197 c -0.13105,3.19796 -2.27274,5.88397 -2.91011,8.93273"
       id="path1158" /><path
       style="fill:none;fill-opacity:1;stroke:#251d18;stroke-width:0.966241;stroke-linecap:round;stroke-linejoin:round;stroke-opacity:1"
       d="m 190.68836,178.09638 c -0.74319,1.79311 -1.89893,3.39315 -2.51836,5.24193 -0.24271,0.72438 -0.21666,1.48793 -0.41973,2.21896"
       id="path1162" /><path
       style="fill:none;fill-opacity:1;stroke:#251d18;stroke-width:0.966241;stroke-linecap:round;stroke-linejoin:round;stroke-opacity:1"
       d="m 199.76848,178.93117 c 0.72411,1.34362 0.74109,2.85725 1.13326,4.28868"
       id="path1164" /><path
       style="fill:none;fill-opacity:1;stroke:#251d18;stroke-width:0.966241;stroke-linecap:round;stroke-linejoin:round;stroke-opacity:1"
       d="m 202.74855,161.67196 c 1.44725,1.64099 1.62449,3.65635 2.23855,5.62715"
       id="path1166" /><path
       style="fill:none;fill-opacity:1;stroke:#251d18;stroke-width:0.966241;stroke-linecap:round;stroke-linejoin:round;stroke-opacity:1"
       d="m 201.93707,144.76813 c 1.3659,1.00259 2.06295,2.59846 3.2459,3.76169"
       id="path1168" /><path
       style="fill:none;fill-opacity:1;stroke:#251d18;stroke-width:0.966241;stroke-linecap:round;stroke-linejoin:round;stroke-opacity:1"
       d="m 197.96365,135.42591 c 2.07616,0.61373 3.86916,1.93724 5.89018,2.78606"
       id="path1170" /><path
       style="fill:none;fill-opacity:1;stroke:#251d18;stroke-width:0.966241;stroke-linecap:round;stroke-linejoin:round;stroke-opacity:1"
       d="m 192.91292,126.42322 c 2.2025,0.20615 4.47739,0.18065 6.61771,0.818"
       id="path1172" /><path
       style="fill:none;fill-opacity:1;stroke:#251d18;stroke-width:0.966241;stroke-linecap:round;stroke-linejoin:round;stroke-opacity:1"
       d="m 186.89682,119.62363 c 1.35387,-0.76711 2.61437,-1.52386 4.11333,-1.78617"
       id="path1176" /><path
       style="fill:none;fill-opacity:1;stroke:#251d18;stroke-width:0.966241;stroke-linecap:round;stroke-linejoin:round;stroke-opacity:1"
       d="m 184.61631,109.10897 c 0.21927,1.68178 1.1537,3.28066 0.93739,5.02089"
       id="path1178" /><path
       style="fill:none;fill-opacity:1;stroke:#251d18;stroke-width:0.966241;stroke-linecap:round;stroke-linejoin:round;stroke-opacity:1"
       d="m 192.35329,105.68586 c 0.47566,1.72546 0.0705,3.47942 -0.22386,5.20183"
       id="path1180" /><path
       style="fill:none;fill-opacity:1;stroke:#251d18;stroke-width:0.966241;stroke-linecap:round;stroke-linejoin:round;stroke-opacity:1"
       d="m 201.02765,101.75068 c 1.75548,0.93868 3.48731,2.00138 4.98078,3.3289"
       id="path1182" /><path
       style="fill:none;fill-opacity:1;stroke:#251d18;stroke-width:0.966241;stroke-linecap:round;stroke-linejoin:round;stroke-opacity:1"
       d="m 216.26378,97.705437 c 0.95092,2.1784 1.13327,4.669123 1.13327,7.036503"
       id="path1190" /><path
       style="fill:none;fill-opacity:1;stroke:#251d18;stroke-width:0.966241;stroke-linecap:round;stroke-linejoin:round;stroke-opacity:1"
       d="m 235.8091,98.327566 c 0.7563,1.256997 0.82886,2.632674 0.89543,4.052704"
       id="path1192" /><path
       style="fill:none;fill-opacity:1;stroke:#251d18;stroke-width:0.966241;stroke-linecap:round;stroke-linejoin:round;stroke-opacity:1"
       d="m 248.23305,102.93898 c 0.86055,0.68284 0.82699,2.17528 1.80482,2.63682"
       id="path1194" /><path
       style="fill:none;fill-opacity:1;stroke:#251d18;stroke-width:0.966241;stroke-linecap:round;stroke-linejoin:round;stroke-opacity:1"
       d="m 244.21765,92.464433 c 1.08456,-0.174375 3.13713,-0.19498 4.08535,-0.991494"
       id="path1196" /><path
       style="fill:none;fill-opacity:1;stroke:#251d18;stroke-width:0.966241;stroke-linecap:round;stroke-linejoin:round;stroke-opacity:1"
       d="m 235.64122,89.35565 c 1.05759,-2.184529 3.38642,-2.427992 5.16264,-3.698259"
       id="path1198" /><path
       style="fill:none;fill-opacity:1;stroke:#251d18;stroke-width:0.966241;stroke-linecap:round;stroke-linejoin:round;stroke-opacity:1"
       d="m 220.51702,86.090172 c 1.23535,-1.540596 2.45778,-3.222884 4.19729,-4.234589"
       id="path1200" /><path
       style="fill:none;fill-opacity:1;stroke:#251d18;stroke-width:0.966241;stroke-linecap:round;stroke-linejoin:round;stroke-opacity:1"
       d="m 208.79263,85.153714 c 1.29839,-2.241476 3.07264,-3.895749 5.05072,-5.470453"
       id="path1202" /><path
       style="fill:none;fill-opacity:1;stroke:#251d18;stroke-width:0.966241;stroke-linecap:round;stroke-linejoin:round;stroke-opacity:1"
       d="m 196.1868,87.199176 c 1.32691,-2.863934 3.18272,-5.355446 5.02274,-7.877809"
       id="path1208" /><path
       style="fill:none;fill-opacity:1;stroke:#251d18;stroke-width:0.966241;stroke-linecap:round;stroke-linejoin:round;stroke-opacity:1"
       d="m 195.62716,75.614698 c 1.64639,-0.780262 3.41392,-1.301447 5.19063,-1.699427"
       id="path1210" /><path
       style="fill:none;fill-opacity:1;stroke:#251d18;stroke-width:0.966241;stroke-linecap:round;stroke-linejoin:round;stroke-opacity:1"
       d="m 200.32811,61.953029 c 1.57113,0.0079 3.00881,0.648663 4.50508,0.97563"
       id="path1212" /><path
       style="fill:none;fill-opacity:1;stroke:#251d18;stroke-width:0.966241;stroke-linecap:round;stroke-linejoin:round;stroke-opacity:1"
       d="m 207.05775,53.57153 c 1.28426,-1.864588 3.25567,-0.198948 4.9388,-0.834798"
       id="path1214" /><path
       style="fill:none;fill-opacity:1;stroke:#251d18;stroke-width:0.966241;stroke-linecap:round;stroke-linejoin:round;stroke-opacity:1"
       d="m 221.93011,44.74885 c 1.77975,0.92108 2.88993,2.677356 4.21127,4.155306"
       id="path1216" /><path
       style="fill:none;fill-opacity:1;stroke:#251d18;stroke-width:0.966241;stroke-linecap:round;stroke-linejoin:round;stroke-opacity:1"
       d="m 231.33201,42.286445 c 0.99392,-0.797525 2.20768,-0.871845 3.37181,-1.25172"
       id="path1218" /><path
       style="fill:none;fill-opacity:1;stroke:#251d18;stroke-width:0.966241;stroke-linecap:round;stroke-linejoin:round;stroke-opacity:1"
       d="m 188.86955,57.003037 c -1.31298,-2.298887 -1.03534,-4.973647 -1.03534,-7.52432"
       id="path1220" /><path
       style="fill:none;fill-opacity:1;stroke:#251d18;stroke-width:0.966241;stroke-linecap:round;stroke-linejoin:round;stroke-opacity:1"
       d="m 180.85274,69.877487 c -1.54841,-2.275584 -0.99549,-4.882958 -1.24519,-7.404932"
       id="path1222" /><path
       style="fill:none;fill-opacity:1;stroke:#251d18;stroke-width:0.966241;stroke-linecap:round;stroke-linejoin:round;stroke-opacity:1"
       d="m 172.44419,77.27589 c -0.31698,-2.510342 0.86069,-4.822934 1.18923,-7.224918"
       id="path1224" /><path
       style="fill:none;fill-opacity:1;stroke:#251d18;stroke-width:0.966241;stroke-linecap:round;stroke-linejoin:round;stroke-opacity:1"
       d="m 65.623458,98.27253 c 0.05519,-1.705465 -0.992618,-3.159354 -2.224552,-4.265362"
       id="path1226" /><path
       style="fill:none;fill-opacity:1;stroke:#251d18;stroke-width:0.966241;stroke-linecap:round;stroke-linejoin:round;stroke-opacity:1"
       d="M 45.252666,92.267624 C 44.41636,91.231604 43.444975,90.323573 42.244617,89.733405"
       id="path1228" /><path
       style="fill:none;fill-opacity:1;stroke:#251d18;stroke-width:0.966241;stroke-linecap:round;stroke-linejoin:round;stroke-opacity:1"
       d="m 95.773912,99.65763 c -1.934389,0.147064 -3.483878,1.44055 -5.274581,2.00631"
       id="path1230" /><path
       style="fill:none;fill-opacity:1;stroke:#251d18;stroke-width:0.966241;stroke-linecap:round;stroke-linejoin:round;stroke-opacity:1"
       d="M 82.958219,83.508379 C 82.552758,82.142322 81.988906,80.517812 80.817604,79.613315"
       id="path1232" /><path
       style="fill:none;fill-opacity:1;stroke:#251d18;stroke-width:0.966241;stroke-linecap:round;stroke-linejoin:round;stroke-opacity:1"
       d="M 68.099856,66.714602 C 67.792285,65.020007 67.365951,63.348043 67.12049,61.646161"
       id="path1234" /><path
       style="fill:none;fill-opacity:1;stroke:#251d18;stroke-width:0.966241;stroke-linecap:round;stroke-linejoin:round;stroke-opacity:1"
       d="M 56.361467,49.235273 C 56.784916,47.872959 55.919021,47.1727 55.172241,46.181522"
       id="path1236" /><path
       style="fill:none;fill-opacity:1;stroke:#251d18;stroke-width:0.966241;stroke-linecap:round;stroke-linejoin:round;stroke-opacity:1"
       d="m 114.50776,70.924944 c -0.6337,-1.620963 -1.91645,-2.86514 -3.02204,-4.179555"
       id="path1238" /><path
       style="fill:none;fill-opacity:1;stroke:#251d18;stroke-width:0.966241;stroke-linecap:round;stroke-linejoin:round;stroke-opacity:1"
       d="m 63.83262,150.40274 c -1.392137,1.6956 -1.919278,3.98657 -1.636934,6.16999"
       id="path1240" /><path
       style="fill:none;fill-opacity:1;stroke:#251d18;stroke-width:0.966241;stroke-linecap:round;stroke-linejoin:round;stroke-opacity:1"
       d="m 68.743438,133.23027 c -0.875386,2.26286 -1.790391,4.38907 -2.182586,6.81545"
       id="path1242" /><path
       style="fill:none;fill-opacity:1;stroke:#251d18;stroke-width:0.966241;stroke-linecap:round;stroke-linejoin:round;stroke-opacity:1"
       d="m 114.40982,172.15489 c 0.96951,0.49628 1.65305,1.30525 2.07066,2.29824"
       id="path1244" /><path
       style="fill:none;fill-opacity:1;stroke:#251d18;stroke-width:0.966241;stroke-linecap:round;stroke-linejoin:round;stroke-opacity:1"
       d="m 109.73685,149.36368 c -1.81567,1.8808 -1.36604,4.7103 -2.33648,6.89379"
       id="path1246" /><path
       style="fill:none;fill-opacity:1;stroke:#251d18;stroke-width:0.966241;stroke-linecap:round;stroke-linejoin:round;stroke-opacity:1"
       d="m 150.29655,138.05434 c -0.34579,1.67035 -0.081,3.37923 -0.20986,5.06845"
       id="path1248" /><path
       style="fill:none;fill-opacity:1;stroke:#251d18;stroke-width:0.966241;stroke-linecap:round;stroke-linejoin:round;stroke-opacity:1"
       d="m 148.57567,154.99829 c -0.95048,0.93022 -1.8888,1.86847 -2.82617,2.8103"
       id="path1250" /><path
       style="fill:none;fill-opacity:1;stroke:#251d18;stroke-width:0.966241;stroke-linecap:round;stroke-linejoin:round;stroke-opacity:1"
       d="m 143.65087,175.40545 c 0.64511,1.14732 0.50366,2.35129 0.50366,3.60407"
       id="path1252" /><path
       style="fill:none;fill-opacity:1;stroke:#251d18;stroke-width:0.966241;stroke-linecap:round;stroke-linejoin:round;stroke-opacity:1"
       d="m 193.59847,140.62027 c 0.38156,1.0681 0.72408,2.15354 0.86745,3.28134"
       id="path1254" /><path
       style="fill:none;fill-opacity:1;stroke:#251d18;stroke-width:0.966241;stroke-linecap:round;stroke-linejoin:round;stroke-opacity:1"
       d="m 197.80975,155.32101 c 0.8698,1.47373 1.29981,3.13431 1.539,4.81661"
       id="path1256" /><path
       style="fill:none;fill-opacity:1;stroke:#251d18;stroke-width:0.966241;stroke-linecap:round;stroke-linejoin:round;stroke-opacity:1"
       d="m 197.04025,165.00925 c -0.25061,1.6917 -1.5692,2.82592 -2.35047,4.26538"
       id="path1258" /><path
       style="fill:none;fill-opacity:1;stroke:#251d18;stroke-width:0.966241;stroke-linecap:round;stroke-linejoin:round;stroke-opacity:1"
       d="m 198.32741,52.815086 c 0.26764,-1.891253 1.05268,-3.551318 2.05666,-5.130943"
       id="path1260" /><path
       style="fill:none;fill-opacity:1;stroke:#251d18;stroke-width:0.966241;stroke-linecap:round;stroke-linejoin:round;stroke-opacity:1"
       d="m 212.79403,42.537347 c 0.87981,-0.162776 1.71938,-0.472731 2.58833,-0.669701"
       id="path1262" /><path
       style="fill:none;fill-opacity:1;stroke:#251d18;stroke-width:0.966241;stroke-linecap:round;stroke-linejoin:round;stroke-opacity:1"
       d="m 196.35468,94.533228 c 1.1019,0.627677 2.18864,1.333361 3.34384,1.865456"
       id="path1264" /><path
       style="fill:none;fill-opacity:1;stroke:#251d18;stroke-width:0.966241;stroke-linecap:round;stroke-linejoin:round;stroke-opacity:1"
       d="m 214.33303,89.921823 c 2.19682,0.992734 4.47851,1.721316 6.77162,2.447471"
       id="path1266" /><path
       style="fill:none;fill-opacity:1;stroke:#251d18;stroke-width:0.966241;stroke-linecap:round;stroke-linejoin:round;stroke-opacity:1"
       d="m 234.04626,92.660311 c 1.20106,-0.346135 2.1581,0.330998 3.30185,0.496207"
       id="path1268" /><path
       style="fill:none;fill-opacity:1;stroke:#251d18;stroke-width:0.966241;stroke-linecap:round;stroke-linejoin:round;stroke-opacity:1"
       d="m 160.2441,98.775278 c 1.35616,0.259738 2.02145,1.246822 2.7842,2.273982"
       id="path1270" /><path
       style="fill:none;fill-opacity:1;stroke:#251d18;stroke-width:0.966241;stroke-linecap:round;stroke-linejoin:round;stroke-opacity:1"
       d="m 170.13569,88.134715 c -0.14514,-1.69973 0.85195,-3.136425 1.27317,-4.673911"
       id="path1274" /><path
       style="fill:none;fill-opacity:1;stroke:#251d18;stroke-width:0.966241;stroke-linecap:round;stroke-linejoin:round;stroke-opacity:1"
       d="m 186.44911,71.057387 c 1.5133,-1.208067 2.68578,-2.766107 4.15531,-4.029389"
       id="path1276" /></g></svg>
